<svg width="20" height="20" viewBox="0 0 20 20" fill="none" xmlns="http://www.w3.org/2000/svg">
<path d="M10.0001 5.19297C7.33995 5.19297 5.19308 7.33984 5.19308 10C5.19308 12.6602 7.33995 14.807 10.0001 14.807C12.6603 14.807 14.8071 12.6602 14.8071 10C14.8071 7.33984 12.6603 5.19297 10.0001 5.19297ZM10.0001 13.1242C8.2798 13.1242 6.87589 11.7203 6.87589 10C6.87589 8.27969 8.2798 6.87578 10.0001 6.87578C11.7204 6.87578 13.1243 8.27969 13.1243 10C13.1243 11.7203 11.7204 13.1242 10.0001 13.1242ZM15.004 3.87578C14.3829 3.87578 13.8814 4.37734 13.8814 4.99844C13.8814 5.61953 14.3829 6.12109 15.004 6.12109C15.6251 6.12109 16.1267 5.62187 16.1267 4.99844C16.1269 4.85095 16.0979 4.70489 16.0416 4.56859C15.9852 4.4323 15.9026 4.30847 15.7983 4.20419C15.694 4.0999 15.5701 4.01721 15.4339 3.96086C15.2976 3.90451 15.1515 3.87559 15.004 3.87578ZM19.3704 10C19.3704 8.70625 19.3821 7.42422 19.3095 6.13281C19.2368 4.63281 18.8946 3.30156 17.7978 2.20469C16.6985 1.10547 15.3696 0.765623 13.8696 0.692967C12.5759 0.620311 11.2939 0.63203 10.0025 0.63203C8.7087 0.63203 7.42667 0.620311 6.13527 0.692967C4.63527 0.765623 3.30402 1.10781 2.20714 2.20469C1.10792 3.3039 0.76808 4.63281 0.695424 6.13281C0.622767 7.42656 0.634486 8.70859 0.634486 10C0.634486 11.2914 0.622767 12.5758 0.695424 13.8672C0.76808 15.3672 1.11027 16.6984 2.20714 17.7953C3.30636 18.8945 4.63527 19.2344 6.13527 19.307C7.42902 19.3797 8.71105 19.368 10.0025 19.368C11.2962 19.368 12.5782 19.3797 13.8696 19.307C15.3696 19.2344 16.7009 18.8922 17.7978 17.7953C18.897 16.6961 19.2368 15.3672 19.3095 13.8672C19.3845 12.5758 19.3704 11.2937 19.3704 10ZM17.3079 15.5266C17.1368 15.9531 16.9306 16.2719 16.6001 16.6C16.2696 16.9305 15.9532 17.1367 15.5267 17.3078C14.2939 17.7977 11.3665 17.6875 10.0001 17.6875C8.6337 17.6875 5.70402 17.7977 4.47121 17.3102C4.04464 17.1391 3.72589 16.9328 3.39777 16.6023C3.0673 16.2719 2.86105 15.9555 2.68996 15.5289C2.20246 14.2937 2.31261 11.3664 2.31261 10C2.31261 8.63359 2.20246 5.7039 2.68996 4.47109C2.86105 4.04453 3.0673 3.72578 3.39777 3.39765C3.72824 3.06953 4.04464 2.86094 4.47121 2.68984C5.70402 2.20234 8.6337 2.3125 10.0001 2.3125C11.3665 2.3125 14.2962 2.20234 15.529 2.68984C15.9556 2.86094 16.2743 3.06719 16.6025 3.39765C16.9329 3.72812 17.1392 4.04453 17.3103 4.47109C17.7978 5.7039 17.6876 8.63359 17.6876 10C17.6876 11.3664 17.7978 14.2937 17.3079 15.5266Z" fill="white"/>
</svg>
