<svg width="22" height="23" viewBox="0 0 22 23" fill="none" xmlns="http://www.w3.org/2000/svg">
<path d="M20.7893 1.47999L21.3793 2.06999C22.1923 2.88399 22.0693 4.32699 21.1023 5.29299L8.9353 17.46L4.9933 18.902C4.4983 19.084 4.0163 18.848 3.9183 18.377C3.88518 18.2061 3.90077 18.0294 3.9633 17.867L5.4333 13.891L17.5663 1.75699C18.5333 0.790995 19.9763 0.666995 20.7893 1.48099V1.47999ZM8.4043 2.68999C8.53562 2.68999 8.66565 2.71586 8.78698 2.76612C8.90831 2.81637 9.01855 2.89003 9.1114 2.98289C9.20426 3.07575 9.27792 3.18599 9.32818 3.30731C9.37843 3.42864 9.4043 3.55867 9.4043 3.68999C9.4043 3.82132 9.37843 3.95135 9.32818 4.07268C9.27792 4.194 9.20426 4.30424 9.1114 4.3971C9.01855 4.48996 8.90831 4.56362 8.78698 4.61387C8.66565 4.66413 8.53562 4.68999 8.4043 4.68999H4.4043C3.87386 4.68999 3.36516 4.90071 2.99008 5.27578C2.61501 5.65085 2.4043 6.15956 2.4043 6.68999V18.69C2.4043 19.2204 2.61501 19.7291 2.99008 20.1042C3.36516 20.4793 3.87386 20.69 4.4043 20.69H16.4043C16.9347 20.69 17.4434 20.4793 17.8185 20.1042C18.1936 19.7291 18.4043 19.2204 18.4043 18.69V14.69C18.4043 14.4248 18.5097 14.1704 18.6972 13.9829C18.8847 13.7954 19.1391 13.69 19.4043 13.69C19.6695 13.69 19.9239 13.7954 20.1114 13.9829C20.2989 14.1704 20.4043 14.4248 20.4043 14.69V18.69C20.4043 19.7509 19.9829 20.7683 19.2327 21.5184C18.4826 22.2686 17.4652 22.69 16.4043 22.69H4.4043C3.34343 22.69 2.32602 22.2686 1.57587 21.5184C0.825724 20.7683 0.404297 19.7509 0.404297 18.69V6.68999C0.404297 5.62913 0.825724 4.61171 1.57587 3.86157C2.32602 3.11142 3.34343 2.68999 4.4043 2.68999H8.4043Z" fill="white"/>
</svg>
