<svg width="20" height="20" viewBox="0 0 20 20" fill="none" xmlns="http://www.w3.org/2000/svg">
<path d="M6.55084 7.29036C6.43331 7.40673 6.27461 7.47201 6.10921 7.47201C5.94382 7.47201 5.78511 7.40673 5.66759 7.29036C5.60956 7.23322 5.56348 7.1651 5.53203 7.08998C5.50057 7.01486 5.48438 6.93424 5.48438 6.8528C5.48438 6.77136 5.50057 6.69073 5.53203 6.61561C5.56348 6.54049 5.60956 6.47238 5.66759 6.41523L9.197 2.95626C9.31479 2.84006 9.47361 2.7749 9.63908 2.7749C9.80455 2.7749 9.96336 2.84006 10.0812 2.95626L13.6106 6.41523C13.6686 6.47238 13.7147 6.54049 13.7461 6.61561C13.7776 6.69073 13.7938 6.77136 13.7938 6.8528C13.7938 6.93424 13.7776 7.01486 13.7461 7.08998C13.7147 7.1651 13.6686 7.23322 13.6106 7.29036C13.4928 7.40657 13.334 7.47172 13.1685 7.47172C13.003 7.47172 12.8442 7.40657 12.7264 7.29036L9.63772 4.45365L6.55084 7.29036Z" fill="#F9F9F9"/>
<path d="M6.55084 11.806C6.43331 11.9224 6.27461 11.9876 6.10921 11.9876C5.94382 11.9876 5.78511 11.9224 5.66759 11.806C5.60956 11.7488 5.56348 11.6807 5.53203 11.6056C5.50057 11.5305 5.48438 11.4499 5.48438 11.3684C5.48438 11.287 5.50057 11.2064 5.53203 11.1312C5.56348 11.0561 5.60956 10.988 5.66759 10.9309L9.197 7.47189C9.31479 7.35568 9.47361 7.29053 9.63908 7.29053C9.80455 7.29053 9.96336 7.35568 10.0812 7.47189L13.6106 10.9309C13.6686 10.988 13.7147 11.0561 13.7461 11.1312C13.7776 11.2064 13.7938 11.287 13.7938 11.3684C13.7938 11.4499 13.7776 11.5305 13.7461 11.6056C13.7147 11.6807 13.6686 11.7488 13.6106 11.806C13.4928 11.9222 13.334 11.9873 13.1685 11.9873C13.003 11.9873 12.8442 11.9222 12.7264 11.806L9.63772 8.96927L6.55084 11.806Z" fill="#F9F9F9"/>
<path d="M6.55084 16.3216C6.43331 16.438 6.27461 16.5033 6.10921 16.5033C5.94382 16.5033 5.78511 16.438 5.66759 16.3216C5.60956 16.2645 5.56348 16.1964 5.53203 16.1212C5.50057 16.0461 5.48438 15.9655 5.48438 15.884C5.48438 15.8026 5.50057 15.722 5.53203 15.6469C5.56348 15.5717 5.60956 15.5036 5.66759 15.4465L9.197 11.9875C9.31479 11.8713 9.47361 11.8062 9.63908 11.8062C9.80455 11.8062 9.96336 11.8713 10.0812 11.9875L13.6106 15.4465C13.6686 15.5036 13.7147 15.5717 13.7461 15.6469C13.7776 15.722 13.7938 15.8026 13.7938 15.884C13.7938 15.9655 13.7776 16.0461 13.7461 16.1212C13.7147 16.1964 13.6686 16.2645 13.6106 16.3216C13.4928 16.4378 13.334 16.503 13.1685 16.503C13.003 16.503 12.8442 16.4378 12.7264 16.3216L9.63772 13.4849L6.55084 16.3216Z" fill="#F9F9F9"/>
</svg>
